HIERARCHY
ROOT SpineBase
{
  OFFSET 0.000000 0.000000 0.000000
  CHANNELS 6 Xposition Yposition Zposition Zrotation Xrotation Yrotation
  JOINT SpineMid
  {
    OFFSET 0.000000 33.139712 0.000000
    CHANNELS 3 Zrotation Xrotation Yrotation
    JOINT SpineShoulder
    {
      OFFSET 0.055622 24.454969 -0.832460
      CHANNELS 3 Zrotation Xrotation Yrotation
      JOINT Neck
      {
        OFFSET 0.059978 8.036331 -0.616549
        CHANNELS 3 Zrotation Xrotation Yrotation
        JOINT Head
        {
          OFFSET 3.830000 13.163722 4.046916
          CHANNELS 3 Zrotation Xrotation Yrotation
          End Site
          {
            OFFSET 0 0 0
          }
        }
      }
      JOINT ShoulderLeft
      {
        OFFSET -8.167321 -3.891072 -14.489675
        CHANNELS 3 Zrotation Xrotation Yrotation
        JOINT ElbowLeft
        {
          OFFSET -4.364900 -22.040099 -5.733633
          CHANNELS 3 Zrotation Xrotation Yrotation
          JOINT WristLeft
          {
            OFFSET 28.477598 -3.355684 4.929005
            CHANNELS 3 Zrotation Xrotation Yrotation
            JOINT HandLeft
            {
              OFFSET 7.084945 2.596665 4.459726
              CHANNELS 3 Zrotation Xrotation Yrotation
              JOINT HandTipLeft
              {
                OFFSET 5.350819 1.595617 1.969940
                CHANNELS 3 Zrotation Xrotation Yrotation
                End Site
                {
                  OFFSET 0 0 0
                }
              }
              JOINT ThumbLeft
              {
                OFFSET 0.435761 4.465127 1.985663
                CHANNELS 3 Zrotation Xrotation Yrotation
                End Site
                {
                  OFFSET 0 0 0
                }
              }
            }
          }
        }
      }
      JOINT ShoulderRight
      {
        OFFSET 10.391081 -6.334174 11.042799
        CHANNELS 3 Zrotation Xrotation Yrotation
        JOINT ElbowRight
        {
          OFFSET 0.351858 -21.282143 -5.875233
          CHANNELS 3 Zrotation Xrotation Yrotation
          JOINT WristRight
          {
            OFFSET 6.720886 3.265179 23.693213
            CHANNELS 3 Zrotation Xrotation Yrotation
            JOINT HandRight
            {
              OFFSET 2.186826 1.084900 8.317329
              CHANNELS 3 Zrotation Xrotation Yrotation
              JOINT HandTipRight
              {
                OFFSET 2.248027 -1.647302 -0.274684
                CHANNELS 3 Zrotation Xrotation Yrotation
                End Site
                {
                  OFFSET 0 0 0
                }
              }
              JOINT ThumbRight
              {
                OFFSET 0.375750 -0.170097 -2.641001
                CHANNELS 3 Zrotation Xrotation Yrotation
                End Site
                {
                  OFFSET 0 0 0
                }
              }
            }
          }
        }
      }
    }
  }
  JOINT HipLeft
  {
    OFFSET -4.146385 1.394531 -9.090012
    CHANNELS 3 Zrotation Xrotation Yrotation
    JOINT KneeLeft
    {
      OFFSET -7.537478 -33.325579 -1.334809
      CHANNELS 3 Zrotation Xrotation Yrotation
      JOINT AnkleLeft
      {
        OFFSET -7.853266 -35.861213 7.068834
        CHANNELS 3 Zrotation Xrotation Yrotation
        JOINT FootLeft
        {
          OFFSET 2.014491 -7.618239 -5.486696
          CHANNELS 3 Zrotation Xrotation Yrotation
          End Site
          {
            OFFSET 0 0 0
          }
        }
      }
    }
  }
  JOINT HipRight
  {
    OFFSET 5.284032 -0.701419 1.297292
    CHANNELS 3 Zrotation Xrotation Yrotation
    JOINT KneeRight
    {
      OFFSET -4.011929 -35.462254 6.507507
      CHANNELS 3 Zrotation Xrotation Yrotation
      JOINT AnkleRight
      {
        OFFSET -7.236084 -35.944895 6.983729
        CHANNELS 3 Zrotation Xrotation Yrotation
        JOINT FootRight
        {
          OFFSET 1.548743 -6.855891 -4.440168
          CHANNELS 3 Zrotation Xrotation Yrotation
          End Site
          {
            OFFSET 0 0 0
          }
        }
      }
    }
  }
}
MOTION
Frames: 8
Frame Time: 0.033333
-56.773783 78.964460 367.687234 -0.000000 0.000000 -47.764346 0.000000 -0.000000 47.764346 -0.000000 0.000000 0.000000 -0.000000 0.000000 0.000000 0.000000 0.000000 0.000000 -0.000000 0.000000 0.000000 -0.000000 0.000000 0.000000 -0.000000 0.000000 0.000000 -0.000000 0.000000 0.000000 0.000000 0.000000 0.000000 0.000000 0.000000 0.000000 -0.000000 0.000000 0.000000 -0.000000 0.000000 0.000000 -0.000000 0.000000 0.000000 -0.000000 0.000000 0.000000 0.000000 0.000000 0.000000 0.000000 0.000000 0.000000 0.000000 -0.000000 47.764346 -0.000000 0.000000 0.000000 -0.000000 0.000000 0.000000 0.000000 0.000000 0.000000 0.000000 -0.000000 47.764346 -0.000000 0.000000 0.000000 -0.000000 0.000000 0.000000 0.000000 0.000000 0.000000
-56.852909 78.985186 367.538372 0.010066 -0.070131 -47.992239 -0.058847 0.039454 47.992266 -0.000000 0.000000 0.000000 -0.000000 0.000000 0.000000 0.000000 0.000000 0.000000 -0.000000 0.000000 0.000000 -0.000000 0.000000 0.000000 -0.000000 0.000000 0.000000 1.986041 -0.230816 -1.782050 0.000000 0.000000 0.000000 0.000000 0.000000 0.000000 -0.000000 0.000000 0.000000 -0.000000 0.000000 0.000000 -0.000000 0.000000 0.000000 -0.000000 0.000000 0.000000 0.000000 0.000000 0.000000 0.000000 0.000000 0.000000 -0.058847 0.039454 47.992266 -0.000000 0.000000 0.000000 -0.000000 0.000000 0.000000 0.000000 0.000000 0.000000 -0.058847 0.039454 47.992266 -0.000000 0.000000 0.000000 0.809768 0.085676 -0.504647 0.000000 0.000000 0.000000
-56.924926 78.999324 367.381386 0.021703 -0.122390 -48.198616 -0.105703 0.065401 48.198700 -0.000000 0.000000 0.000000 -0.000000 0.000000 0.000000 0.000000 0.000000 0.000000 -0.000000 0.000000 0.000000 -0.000000 0.000000 0.000000 0.478804 0.092407 -1.085699 2.780580 -0.411214 -1.972463 0.000000 0.000000 0.000000 0.000000 0.000000 0.000000 -0.000000 0.000000 0.000000 -0.000000 0.000000 0.000000 -0.000000 0.000000 0.000000 -0.000000 0.000000 0.000000 0.000000 0.000000 0.000000 0.000000 0.000000 0.000000 -0.105703 0.065401 48.198700 -0.000000 0.000000 0.000000 -0.000000 0.000000 0.000000 0.000000 0.000000 0.000000 -0.105703 0.065401 48.198700 -0.000000 0.000000 0.000000 1.591975 0.203147 -0.983788 0.000000 0.000000 0.000000
-56.989833 79.006872 367.216274 0.034907 -0.156681 -48.383379 -0.140319 0.077962 48.383523 -0.000000 0.000000 0.000000 -0.000000 0.000000 0.000000 0.000000 0.000000 0.000000 -0.000000 0.000000 0.000000 -0.000000 0.000000 0.000000 0.824242 0.038743 -1.551083 3.163659 -0.369670 -2.429632 0.000000 0.000000 0.000000 0.000000 0.000000 0.000000 -0.000000 0.000000 0.000000 -0.000000 0.000000 0.000000 -0.000000 0.000000 0.000000 -0.000000 0.000000 0.000000 0.000000 0.000000 0.000000 0.000000 0.000000 0.000000 -0.140319 0.077962 48.383523 -0.000000 0.000000 0.000000 0.791599 -0.589672 -0.723327 0.000000 0.000000 0.000000 -0.140319 0.077962 48.383523 -0.000000 0.000000 0.000000 2.346135 0.353007 -1.437560 0.000000 0.000000 0.000000
-57.047630 79.007831 367.043038 0.049672 -0.172935 -48.546444 -0.162497 0.077256 48.546628 -0.000000 0.000000 0.000000 0.867108 -0.185830 -0.211677 0.000000 0.000000 0.000000 -0.000000 0.000000 0.000000 -0.001379 0.095623 0.810529 1.240525 -0.197636 -2.770062 3.035127 -0.177928 -2.671637 0.000000 0.000000 0.000000 0.000000 0.000000 0.000000 -0.000000 0.000000 0.000000 -0.000000 0.000000 0.000000 -0.000000 0.000000 0.000000 -0.000000 0.000000 0.000000 0.000000 0.000000 0.000000 0.000000 0.000000 0.000000 -0.162497 0.077256 48.546628 -0.000000 0.000000 0.000000 1.012971 -0.935360 -0.972059 0.000000 0.000000 0.000000 -0.162497 0.077256 48.546628 -0.000000 0.000000 0.000000 3.071845 0.535737 -1.866156 0.000000 0.000000 0.000000
-57.098318 79.002201 366.861676 0.065988 -0.171109 -48.687737 -0.172087 0.063394 48.687931 -0.000000 0.000000 0.000000 0.953457 -0.220518 -0.227819 0.000000 0.000000 0.000000 -0.000000 0.000000 0.000000 -0.000000 0.000000 0.000000 1.732816 -0.279219 -2.315158 2.448850 0.157372 -2.749512 0.000000 0.000000 0.000000 0.000000 0.000000 0.000000 -0.000000 0.000000 0.000000 -0.000000 0.000000 0.000000 -0.000000 0.000000 0.000000 -0.000000 0.000000 0.000000 0.000000 0.000000 0.000000 0.000000 0.000000 0.000000 -0.172087 0.063394 48.687931 -0.000000 0.000000 0.000000 1.213770 -1.355358 -1.225212 0.000000 0.000000 0.000000 -0.172087 0.063394 48.687931 -0.000000 0.000000 0.000000 3.768782 0.751711 -2.269810 0.000000 0.000000 0.000000
-57.140244 79.006324 366.630397 0.082803 -0.088731 -48.902127 -0.121297 -0.004072 48.902187 -0.000000 0.000000 0.000000 1.011002 -0.396533 -0.192648 0.000000 0.000000 0.000000 -0.000000 0.000000 0.000000 -0.000000 0.000000 0.000000 2.260712 -0.923466 -1.442882 2.300879 0.649267 -3.843099 0.000000 0.000000 0.000000 0.000000 0.000000 0.000000 -0.000000 0.000000 0.000000 -0.000000 0.000000 0.000000 -0.000000 0.000000 0.000000 -0.000000 0.000000 0.000000 0.000000 0.000000 0.000000 0.000000 0.000000 0.000000 0.653906 -0.285734 49.066386 -0.295147 0.770170 -0.160255 1.523597 -2.435595 -1.729385 0.000000 0.000000 0.000000 0.831040 -0.104107 49.092629 -1.247945 0.238823 -0.204669 5.454671 1.685291 -2.851024 0.000000 0.000000 0.000000
-57.178082 78.990511 366.412812 0.108789 -0.048214 -49.031779 -0.107732 -0.050532 49.031777 -0.000000 0.000000 0.000000 0.904793 -0.393043 -0.161246 0.000000 0.000000 0.000000 -0.000000 0.000000 0.000000 -0.000000 0.000000 0.000000 2.643391 -0.965676 -2.041475 -1.371076 1.599505 -2.000409 0.000000 0.000000 0.000000 0.000000 0.000000 0.000000 -0.000000 0.000000 0.000000 -0.000000 0.000000 0.000000 -0.000000 0.000000 0.000000 -0.000000 0.000000 0.000000 0.000000 0.000000 0.000000 0.000000 0.000000 0.000000 0.766016 -0.378446 49.220046 -0.322441 0.875779 -0.182533 1.638028 -3.367800 -2.058020 0.000000 0.000000 0.000000 1.041672 -0.258926 49.257715 -1.336877 0.416087 -0.233065 6.418464 2.041365 -3.395033 0.000000 0.000000 0.000000
